<svg xmlns="http://www.w3.org/2000/svg">
<svg viewBox="0 0 400000 549" preserveAspectRatio="xMinYMin slice">
<!--Adapted from glyph U+21D0 in KaTeX font Main Regular.-->
<!--Copyright (c) 2009-2010, Design Science, Inc. (<www.mathjax.org>)-->
<!--Copyright (c) 2014-2017 Khan Academy (<www.khanacademy.org>)-->
<!--Licensed under the SIL Open Font License, Version 1.1. See \nhttp://scripts.sil.org/OFL-->
<path fill="black"
d="M262 157
C262 157 272 147 272 147
306 111 334.7 70 358 24
361.3 16 363 10.7 363 8
363 2.7 356.3 0 343 0
335.7 0 330.8 0.5 328.5 1.5
326.2 2.5 323.7 6 321 12
271.7 109.3 199.3 181.3 104 228
76 242 46.7 253 16 261
9.3 263 5 264.8 3 266.5
1 268.2 0 270.7 0 274
0 277.3 1 279.8 3 281.5
5 283.2 9.3 285 16 287
84 304.3 144.2 334.8 196.5 378.5
248.8 422.2 290.3 474.7 321 536
330.3 544 336.3 548.3 339 549
339 549 345 549 345 549
357 548.3 363 545 363 539
363 537 361.3 532 358 524
334.7 478 306 437 272 401
272 401 262 391 262 391
L400000 391
400000 351
218 351
C546 351 218 351 218 351
218 351 208 343 208 343
181.3 323 142.3 300 91 274
93.7 272 97 270.3 101 269
137.7 253 173.3 231.7 208 205
208 205 218 197 218 197
L400000 197
400000 157 Z"/>
</svg>
</svg>