<svg xmlns="http://www.w3.org/2000/svg">
<svg width="50.1%" viewBox="0 0 400000 549" preserveAspectRatio="xMinYMin slice">
<!--Left arrow-->
<path fill="black"
d="M262 157
C262 157 272 147 272 147
306 111 334.7 70 358 24
361.3 16 363 10.7 363 8
363 2.7 356.3 0 343 0
335.7 0 330.8 0.5 328.5 1.5
326.2 2.5 323.7 6 321 12
271.7 109.3 199.3 181.3 104 228
76 242 46.7 253 16 261
9.3 263 5 264.8 3 266.5
1 268.2 0 270.7 0 274
0 277.3 1 279.8 3 281.5
5 283.2 9.3 285 16 287
84 304.3 144.2 334.8 196.5 378.5
248.8 422.2 290.3 474.7 321 536
330.3 544 336.3 548.3 339 549
339 549 345 549 345 549
357 548.3 363 545 363 539
363 537 361.3 532 358 524
334.7 478 306 437 272 401
272 401 262 391 262 391
L400000 391
400000 351
218 351
C546 351 218 351 218 351
218 351 208 343 208 343
181.3 323 142.3 300 91 274
93.7 272 97 270.3 101 269
137.7 253 173.3 231.7 208 205
208 205 218 197 218 197
L400000 197
400000 157 Z"/>
</svg>

<svg x="50%" width="50%" viewBox="0 0 400000 549" preserveAspectRatio="xMaxYMin slice">
<!--Right arrow-->
<path fill="black"
d="M399738 392
C399738 392 399728 402 399728 402
399694 438 399665.3 479 399642 525
399638.7 533 399637 538.3 399637 541
399637 546.3 399643.7 549 399657 549
399664.3 549 399669.2 548.5 399671.5 547.5
399673.8 546.5 399676.3 543 399679 537
399728.3 439.7 399800.7 367.7 399896 321
399924 307 399953.3 296 399984 288
399990.7 286 399995 284.2 399997 282.5
399999 280.8 400000 278.3 400000 275
400000 271.7 399999 269.2 399997 267.5
399995 265.8 399990.7 264 399984 262
399916 244.7 399855.8 214.2 399803.5 170.5
399751.2 126.8 399709.7 74.3 399679 13
399669.7 5 399663.7 0.7 399661 0
399661 0 399655 0 399655 0
399643 0.7 399637 4 399637 10
399637 12 399638.7 17 399642 25
399665.3 71 399694 112 399728 148
399728 148 399738 158 399738 158
L0 158
0 198
399782 198
C399454 198 399782 198 399782 198
399782 198 399792 206 399792 206
399818.7 226 399857.7 249 399909 275
399906.3 277 399903 278.7 399899 280
399862.3 296 399826.7 317.3 399792 344
399792 344 399782 352 399782 352
L0 352
0 392  Z"/>

</svg>
</svg>