<svg xmlns="http://www.w3.org/2000/svg">
<svg viewBox="0 0 400000 549" preserveAspectRatio="xMaxYMin slice">
<!--Adapted from glyph U+21D2 in KaTeX font Main Regular.-->
<!--Copyright (c) 2009-2010, Design Science, Inc. (<www.mathjax.org>)-->
<!--Copyright (c) 2014-2017 Khan Academy (<www.khanacademy.org>)-->
<!--Licensed under the SIL Open Font License, Version 1.1. See \nhttp://scripts.sil.org/OFL-->
<path fill="black"
d="M399738 392
C399738 392 399728 402 399728 402
399694 438 399665.3 479 399642 525
399638.7 533 399637 538.3 399637 541
399637 546.3 399643.7 549 399657 549
399664.3 549 399669.2 548.5 399671.5 547.5
399673.8 546.5 399676.3 543 399679 537
399728.3 439.7 399800.7 367.7 399896 321
399924 307 399953.3 296 399984 288
399990.7 286 399995 284.2 399997 282.5
399999 280.8 400000 278.3 400000 275
400000 271.7 399999 269.2 399997 267.5
399995 265.8 399990.7 264 399984 262
399916 244.7 399855.8 214.2 399803.5 170.5
399751.2 126.8 399709.7 74.3 399679 13
399669.7 5 399663.7 0.7 399661 0
399661 0 399655 0 399655 0
399643 0.7 399637 4 399637 10
399637 12 399638.7 17 399642 25
399665.3 71 399694 112 399728 148
399728 148 399738 158 399738 158
L0 158
0 198
399782 198
C399454 198 399782 198 399782 198
399782 198 399792 206 399792 206
399818.7 226 399857.7 249 399909 275
399906.3 277 399903 278.7 399899 280
399862.3 296 399826.7 317.3 399792 344
399792 344 399782 352 399782 352
L0 352
0 392  Z"/>
</svg>
</svg>