<svg xmlns="http://www.w3.org/2000/svg">
<svg width="50.1%" viewBox="0 0 400000 382" preserveAspectRatio="xMinYMin slice">
<!--Left arrow-->
<path fill="black"
d="M0 214
C68 254 115.7 309.7 143 381
143 381 165 381 165 381
180.3 381 188 380.7 188 380
188 378.7 182.7 366.3 172 343
154 307.7 130.7 274 102 242
102 242 95 234 95 234
L400000 234
400000 194
95 194
C95 194 102 186 102 186
130.7 154 154 120.3 172 85
182.7 61.7 188 49.3 188 48
188 47.3 180.3 47 165 47
165 47 143 47 143 47
115.7 118.3 68 174 0 214 Z"/>
</svg>

<svg x="50%" width="50%" viewBox="0 0 400000 382" preserveAspectRatio="xMaxYMin slice">
<!--Right hook, U+21A9-->
<path fill="black"
d="M399859 234
C399897 234 399930 222.8 399958 200.5
399986 178.2 400000 150.3 400000 117
400000 83.7 399985.8 55.8 399957.5 33.5
399929.2 11.2 399896 0 399858 0
399841.3 0 399833 6.7 399833 20
399833 32 399841.7 38.7 399859 40
399899 43.3 399927.7 55.7 399945 77
399955 89 399960 102.3 399960 117
399960 139.7 399950.2 157.7 399930.5 171
399910.8 184.3 399887 192 399859 194
L0 194
L0 234  Z"/>
</svg>

</svg>