<svg xmlns="http://www.w3.org/2000/svg">
<svg width="50.1%" viewBox="0 0 400000 382" preserveAspectRatio="xMinYMin slice">
<!--Left hook, U+21AA-->
<path fill="black"
d="M42 33.5
C42 33.5 35 39.1 21 50.2
7 61.4 0 83.7 0 117
0 150.3 14 178.2 42 200.5
70 222.8 103 234 141 234
L400000 234
400000 194
141 194
C101 190.7 72.3 178.3 55 157
45 145 40 131.7 40 117
40 94.3 49.8 76.3 69.5 63
89.2 49.7 113 42 141 40
158.3 38.7 167 32 167 20
167 6.7 158.3 0 141 0
103 0 70 11.2 42 33.5 Z"/>
</svg>

<svg x="50%" width="50%" viewBox="0 0 400074 382" preserveAspectRatio="xMaxYMin slice">
<!--Right arrow-->
<path fill="black"
d="M400000 214
C399929.3 172 399882 116.3 399858 47
399858 47 399835 47 399835 47
399819.7 47 399812 47.3 399812 48
399812 49.3 399817.3 61.7 399828 85
399846 120.3 399869.3 154 399898 186
399898 186 399905 194 399905 194
L0 194
0 234
399905 234
C399905 234 399898 242 399898 242
399869.3 274 399846 307.7 399828 343
399817.3 366.3 399812 378.7 399812 380
399812 380.7 399819.7 381 399835 381
399835 381 399858 381 399858 381
399882 311.7 399929.3 256 400000 214 Z"/>
</svg>
</svg>