<svg xmlns="http://www.w3.org/2000/svg">
<svg width="50.1%" viewBox="0 0 400000 334" preserveAspectRatio="xMinYMin slice">
<!--Left arrow-->
<path fill="black"
d="M0 167
C68 207 115.7 262.7 143 334
143 334 165 334 165 334
180.3 334 188 333.7 188 333
188 331.7 182.7 319.3 172 296
154 260.7 130.7 227 102 195
102 195 95 187 95 187
L400000 187
400000 147
95 147
C95 147 102 139 102 139
130.7 107 154 73.3 172 38
182.7 14.7 188 2.3 188 1
188 0.3 180.3 0 165 0
165 0 143 0 143 0
115.7 71.3 68 127 0 167 Z"/>
</svg>

<svg x="50%" width="50%" viewBox="0 0 400000 334" preserveAspectRatio="xMaxYMin slice">
<!--Right arrow-->
<path fill="black"
d='M400000,167
c-70.7,-42,-118,-97.7,-142,-167
0,0,-23,0,-23,0
-15.3,0,-23,0.3,-23,1
0,1.3,5.3,13.7,16,37
18,35.3,41.3,69,70,101
0,0,7,8,7,8
l-399905,0
0,40
399905,0
c0,0,-7,8,-7,8
-28.7,32,-52,65.7,-70,101
-10.7,23.3,-16,35.7,-16,37
0,0.7,7.7,1,23,1
0,0,23,0,23,0
24,-69.3,71.3,-125,142,-167z'/>
</svg>

</svg>