<svg xmlns="http://www.w3.org/2000/svg">
<!--The images in this file are adapted from glyphs in the font KaTeX Size 4 Regular -->
<!--Copyright (c) 2009-2010, Design Science, Inc. (<www.mathjax.org>)--> 
<!--Copyright (c) 2014 Khan Academy (<www.khanacademy.org>)-->
<!--Licensed under the SIL Open Font License, Version 1.1. See \nhttp://scripts.sil.org/OFL-->

<svg width="25.1%" viewBox="0 0 400000 548" preserveAspectRatio="xMinYMin slice">
<!--From  U+x23A9, LEFT_CURLY_BRACKET_LOWER_HOOK-->
<path fill="black"
d="M 6 548
C6 548 0 542 0 542
0 542 0 507 0 507
0 507 6 496 6 496
62 392 141.3 314.7 244 264
301.3 235.3 361 219 423 214
L400000 214
400000 334
403 334
C359.7 341 322 349 290 360
189.3 393 110.3 451 53 534
50.3 539 47 543 43 547
42.3 548 35.7 548 23 548
23 548 6 548 6 548 Z"/>
</svg>

<svg x="25%" width="50%" viewBox="0 0 400000 548" preserveAspectRatio="xMidYMin slice">
<!-- From U+23A8, LEFT_CURLY_BRACKET_MIDDLE_PIECE -->
<path fill="black"
d="M 200428 334
C 200327.3 325.7 200232.7 290 200148 226
200092.7 184 200046.3 133 200009 73
200009 73 200000 59 200000 59
199997.3 63 199994.3 67.7 199991 73
199937.7 159.7 199867.3 226 199780 272
199713.3 308 199642.7 328.3 199568 334
L 0 334
0 214
199568 214
C 199746.3 202.3 199879.7 135.7 199971 13
199977 5 199980.7 1 199982 1
199982.7 0.3 199988.7 0 200000 0
200011.3 0 200017.3 0.3 200018 1
200019.3 1 200023 5 200029 13
200073.7 72.3 200130.3 119.3 200199 154
200267.7 188.7 200344.3 208.3 200428 214
L 400000 214
400000 334 Z"/>
</svg>

<svg x="74.9%" width="24.1%" viewBox="0 0 400000 548" preserveAspectRatio="xMaxYMin slice">
<!--From  U+x23A7, LEFT_CURLY_BRACKET_UPPER_HOOK-->
<path fill="black"
d="M 400000 542
C400000 542 399994 548 399994 548
399994 548 399977 548 399977 548
399964.3 548 399957.7 547.7 399957 547
399953 543 399949.7 538.7 399947 534
399911.7 482.7 399866.2 440.2 399810.5 406.5
399754.8 372.8 399693.3 350.7 399626 340
399625.3 340 399624 339.7 399622 339
399603.3 336.3 399546 334.7 399450 334
L0 334
0 214
399571 214
399577 215
C399701.7 223 399812 276.7 399908 376
399939.3 409.3 399967.7 448.7 399993 494
399993 494 400000 507 400000 507
400000 507 400000 542 400000 542 Z"/>
</svg>
</svg>