<svg xmlns="http://www.w3.org/2000/svg">
<svg width="50.1%" viewBox="0 0 400000 262" preserveAspectRatio="xMinYMin slice">
<path fill="black"
d="M400000,80 L 435,80 C 64,80 168.3,229.4 21,260 c -5.9,1.2 -18,0 -18,0 -2,0 -3,-1 -3,-3 L 0,219 C 76,61 257,0 435,0 L400000,0 Z"/>
</svg>
<svg x="50%" width="50%" viewBox="0 0 400000 262" preserveAspectRatio="xMaxYMin slice">
<path fill="black"
d="M0,80L399565,80c371,0,266.7,149.4,414,180c5.9,1.2,18,0,18,0c2,0,3,-1,3,-3l0,-38c-76,-158,-257,-219,-435,-219L0,0z"/>
</svg>
</svg>