<svg xmlns="http://www.w3.org/2000/svg">
<!--The images in this file are adapted from glyphs in the font KaTeX Size 4 Regular -->
<!--Copyright (c) 2009-2010, Design Science, Inc. (<www.mathjax.org>)-->
<!--Copyright (c) 2014 Khan Academy (<www.khanacademy.org>)-->
<!--Licensed under the SIL Open Font License, Version 1.1. See \nhttp://scripts.sil.org/OFL-->

<svg width="25.1%" viewBox="0 0 400000 548" preserveAspectRatio="xMinYMin slice">
<!--From  U+x23A9, LEFT_CURLY_BRACKET_LOWER_HOOK-->
<path fill="black"
d="M 0 6
C0 6 6 0 6 0
6 0 23 0 23 0
35.6875 0 42.3125 0.3 43 1
47 5 50.3125 9.3 53 14
88.3125 65.3 133.8125 107.8 189.5 141.5
245.1875 175.2000122 306.6875 197.3 374 208
374.6875 208 376 208.3 378 209
396.6875 211.7 454 213.3 550 214
L400000 214
400000 334
429 334
423 333
C298.3125 325 188 271.3 92 172
60.6875 138.7 32.3125 99.3 7 54
7 54 0 41 0 41
0 41 0 6 0 6 Z"/>
</svg>

<svg x="25%" width="50%" viewBox="0 0 400000 548" preserveAspectRatio="xMidYMin slice">
<!-- From U+23A8, LEFT_CURLY_BRACKET_MIDDLE_PIECE -->
<path fill="black"
d="M 199572 214
C199672.7 222.3 199767.3 258 199852 322
199907.3 364 199953.7 415 199991 475
199991 475 200000 489 200000 489
200002.7 485 200005.7 480.3 200009 475
200062.3 388.3 200132.7 322 200220 276
200286.7 240 200357.3 219.7 200432 214
L400000 214
400000 334
200432 334
C200253.7 345.7 200120.3 412.3 200029 535
200023 543 200019.3 547 200018 547
200017.3 547.7 200011.3 548 200000 548
199988.7 548 199982.7 547.7 199982 547
199980.7 547 199977 543 199971 535
199926.3 475.7 199869.7 428.7 199801 394
199732.3 359.3 199655.7 339.7 199572 334
L0 334
0 214  Z"/>
</svg>

<svg x="74.9%" width="25.1%" viewBox="0 0 400000 548" preserveAspectRatio="xMaxYMin slice">
<!--From  U+x23A7, LEFT_CURLY_BRACKET_UPPER_HOOK--><path fill="black"
d="M 399994 0
C399994 0 400000 6 400000 6
400000 6 400000 41 400000 41
400000 41 399994 52 399994 52
399938 156 399858.7 233.3 399756 284
399698.7 312.7 399639 329 399577 334
L-300 334
-300 214
399597 214
C399640.3 207 399678 199 399710 188
399810.7 155 399889.7 97 399947 14
399949.7 9 399953 5 399957 1
399957.7 0 399964.3 0 399977 0
399977 0 399994 0 399994 0 Z"/>
</svg>
</svg>